<?xml version="1.0" standalone="no"?>
<!DOCTYPE svg PUBLIC "-//W3C//DTD SVG 20010904//EN"
 "http://www.w3.org/TR/2001/REC-SVG-20010904/DTD/svg10.dtd">
<svg version="1.0" xmlns="http://www.w3.org/2000/svg"
 width="203.000000pt" height="203.000000pt" viewBox="0 0 203.000000 203.000000"
 preserveAspectRatio="xMidYMid meet">
<metadata>
Created by potrace 1.11, written by Peter Selinger 2001-2013
</metadata>
<g transform="translate(0.000000,203.000000) scale(0.100000,-0.100000)"
fill="#000000" stroke="none">
<path d="M870 2018 c-88 -12 -251 -68 -330 -113 -304 -171 -487 -452 -520
-795 -7 -70 -7 -132 0 -185 12 -99 14 -107 24 -123 4 -6 5 -12 2 -12 -7 0 37
-123 67 -190 43 -95 121 -202 207 -285 133 -128 141 -135 150 -130 5 3 10 1
12 -4 7 -19 200 -103 294 -128 135 -35 345 -38 471 -5 105 27 221 75 285 118
28 19 54 34 60 34 19 0 226 216 263 275 104 163 152 323 170 565 5 75 -3 152
-16 144 -5 -3 -6 8 -3 23 5 29 -45 182 -87 266 -90 177 -266 351 -448 445
-182 95 -393 130 -601 100z m1147 -910 c-3 -8 -6 -5 -6 6 -1 11 2 17 5 13 3
-3 4 -12 1 -19z"/>
</g>
</svg>
