<?xml version="1.0" encoding="utf-8"?>
<!-- Generator: Adobe Illustrator 16.0.0, SVG Export Plug-In . SVG Version: 6.00 Build 0)  -->
<!DOCTYPE svg PUBLIC "-//W3C//DTD SVG 1.1//EN" "http://www.w3.org/Graphics/SVG/1.1/DTD/svg11.dtd">
<svg version="1.1" id="Layer_1" xmlns="http://www.w3.org/2000/svg" xmlns:xlink="http://www.w3.org/1999/xlink" x="0px" y="0px"
	 width="216px" height="72px" viewBox="0 0 216 72" enable-background="new 0 0 216 72" xml:space="preserve">
<g>
	<path fill="#FFFFFF" d="M0,0L0,0L0,0z"/>
	<rect fill="#FFFFFF" width="216" height="72"/>
	<path fill="#0069AA" d="M57.871,22.944c-1.451-2.407-4.234-3.349-6.939-3.349c-3.823,0-7.744,2.015-7.744,6.268
		c0,3.905,2.921,4.978,6.234,5.794c1.667,0.387,4.901,0.817,4.901,3.137c0,1.759-2.156,2.571-4.136,2.571
		c-2.235,0-3.686-1.155-4.94-2.402l-2.901,2.402c2.019,2.75,4.509,3.61,7.841,3.61c4.038,0,8.253-1.803,8.253-6.399
		c0-3.818-2.587-5.108-5.92-5.925c-1.725-0.387-5.195-0.73-5.195-3.175c0-1.459,1.587-2.276,3.391-2.276
		c1.921,0,3.254,0.899,4.156,2.015L57.871,22.944"/>
	<path fill="#0069AA" d="M78.709,22.856c-2.019-2.189-4.861-3.218-7.821-3.218c-6.352,0-10.645,4.46-10.645,10.729
		c0,6.274,4.371,10.609,10.645,10.609c2.96,0,5.705-0.904,7.724-3.137l-2.745-2.745c-1.294,1.503-2.784,2.271-4.94,2.271
		c-3.999,0-6.567-3.088-6.567-6.911c0-3.818,2.137-7.211,6.351-7.211c2.157,0,3.646,0.773,5.077,2.276L78.709,22.856"/>
	<path fill-rule="evenodd" clip-rule="evenodd" fill="#0069AA" d="M83.806,28.613c0-2.707,2.489-5.931,6.312-5.931
		c3.901,0,5.783,2.532,5.881,5.931H83.806L83.806,28.613z M100.116,31.701v-1.373c0-5.239-2.745-10.734-9.919-10.734
		c-6.097,0-10.527,4.591-10.527,10.69c0,6.056,4.038,10.69,10.487,10.69c3.901,0,6.861-1.372,9.018-4.166l-2.921-2.233
		c-1.509,1.846-3.215,3.049-5.587,3.049c-3.567,0-6.861-2.363-6.861-5.925H100.116"/>
	<path fill="#0069AA" d="M103.723,40.458h3.862V29.98c0-4.722,2.45-6.78,5.665-6.78c2.45,0,4.646,1.416,4.646,5.239v12.019h3.861
		V27.366c0-5.414-3.431-7.771-7.391-7.771c-3.136,0-5.704,1.498-6.684,3.648h-0.098v-3.137h-3.862V40.458"/>
	<path fill-rule="evenodd" clip-rule="evenodd" fill="#0069AA" d="M135.539,37.365c-4.117,0-6.704-2.958-6.704-7.08
		s2.587-7.085,6.704-7.085c4.136,0,6.704,2.963,6.704,7.085S139.675,37.365,135.539,37.365L135.539,37.365z M146.105,8h-3.862
		v15.031h-0.078c-1.392-2.107-4.176-3.436-7.097-3.436c-6.273,0-10.351,4.591-10.351,10.69c0,6.012,4.038,10.69,10.351,10.69
		c2.744,0,5.587-1.247,7.097-3.431h0.078v2.913h3.862V8"/>
	<path fill-rule="evenodd" clip-rule="evenodd" fill="#0069AA" d="M163.944,30.672v1.285c0,2.75-1.49,5.925-5.783,5.925
		c-2.666,0-4.392-0.985-4.392-3.305c0-3.262,4.47-3.905,8.116-3.905H163.944L163.944,30.672z M153.299,25.002
		c1.432-1.073,2.843-2.32,5.803-2.32c3.313,0,4.843,2.189,4.843,4.297v0.855h-2.823c-6.175,0-11.213,1.808-11.213,7.042
		c0,3.954,3.273,6.1,7.057,6.1c3.078,0,5.411-0.985,7.116-3.61h0.098c0,1.034,0.039,2.063,0.118,3.093h3.43
		c-0.116-1.072-0.155-2.276-0.155-3.692V26.375c0-3.519-2.49-6.78-8.509-6.78c-2.843,0-5.92,0.985-8.076,3.006L153.299,25.002"/>
	<path fill="#0069AA" d="M172.158,40.458h3.86V29.98c0-4.722,2.451-6.78,5.666-6.78c2.45,0,4.626,1.416,4.626,5.239v12.019h3.883
		V27.366c0-5.414-3.451-7.771-7.392-7.771c-3.136,0-5.704,1.498-6.704,3.648h-0.079v-3.137h-3.86V40.458"/>
	<path fill="#0069AA" d="M205.895,20.106h-5.527v-5.708h-3.862v5.708h-4.47v3.349h4.47v10.609c0,3.257,0.078,6.911,6.057,6.911
		c0.766,0,2.568-0.175,3.471-0.687v-3.523c-0.766,0.474-1.843,0.6-2.744,0.6c-2.921,0-2.921-2.402-2.921-4.679v-9.231h5.527V20.106"
		/>
	<polyline fill="#0069AA" points="10,39.837 25.153,8.055 40.522,39.837 35.563,39.837 25.153,18.32 14.901,39.837 10,39.837 	"/>
	<polyline fill="#005288" points="27.878,29.828 23.134,39.832 17.488,39.832 25.055,23.968 27.878,29.828 	"/>
	<path fill="#005288" d="M38.738,51.094c-0.765-0.708-2.019-1.225-3.313-1.225c-3.274,0-5.116,2.587-5.116,4.972
		c0,2.391,1.842,4.978,5.116,4.978c1.215,0,2.49-0.506,3.352-1.296l-0.764-0.877c-0.686,0.638-1.51,1.029-2.588,1.029
		c-1.96,0-3.823-1.585-3.823-3.834c0-2.222,1.804-3.834,3.823-3.834c0.921,0,1.804,0.37,2.49,0.986L38.738,51.094"/>
	<path fill-rule="evenodd" clip-rule="evenodd" fill="#005288" d="M43.423,53.964c1.274,0,2.372,1.029,2.372,2.402
		c0,1.269-1.098,2.385-2.372,2.385c-1.274,0-2.352-1.116-2.352-2.385C41.071,54.993,42.149,53.964,43.423,53.964L43.423,53.964z
		 M39.855,56.366c0,1.89,1.412,3.452,3.568,3.452s3.587-1.563,3.587-3.452c0-1.868-1.509-3.47-3.587-3.47
		C41.346,52.896,39.855,54.498,39.855,56.366"/>
	<path fill="#005288" d="M57.205,59.666h1.137v-4.177c0-1.737-1.117-2.593-2.529-2.593c-0.882,0-1.764,0.311-2.156,1.144
		c-0.549-0.964-1.294-1.144-1.96-1.144c-0.706,0-1.529,0.268-1.842,0.942h-0.02v-0.79h-1.137v6.617h1.137v-3.997
		c0-1.105,0.706-1.705,1.667-1.705c0.784,0,1.451,0.513,1.451,1.65v4.052h1.137v-3.997c0-1.105,0.706-1.705,1.667-1.705
		c0.784,0,1.451,0.513,1.451,1.65V59.666"/>
	<path fill-rule="evenodd" clip-rule="evenodd" fill="#005288" d="M60.224,62.46h1.137v-3.807h0.039
		c0.471,0.681,1.313,1.165,2.451,1.165c1.843,0,3.489-1.448,3.489-3.528c0-1.906-1.568-3.394-3.431-3.394
		c-0.98,0-1.98,0.409-2.509,1.198H61.36v-1.046h-1.137V62.46L60.224,62.46z M66.124,56.306c0,1.52-1.176,2.445-2.392,2.445
		c-1.294,0-2.372-1.062-2.372-2.385c0-1.335,1.098-2.402,2.333-2.402C65.242,53.964,66.124,55.2,66.124,56.306"/>
	<path fill="#005288" d="M68.751,50.016v7.674c0,1.378,0.706,1.977,1.745,1.977h0.47v-1.067h-0.333c-0.373,0-0.745-0.25-0.745-1.002
		v-7.581H68.751"/>
	<path fill-rule="evenodd" clip-rule="evenodd" fill="#005288" d="M71.73,50.958c0,0.441,0.353,0.801,0.784,0.801
		c0.451,0,0.804-0.359,0.804-0.801c0-0.446-0.353-0.801-0.804-0.801C72.083,50.157,71.73,50.512,71.73,50.958L71.73,50.958z
		 M71.946,59.666h1.156v-6.617h-1.156V59.666"/>
	<path fill-rule="evenodd" clip-rule="evenodd" fill="#005288" d="M79.396,57.493c0,0.648-0.471,1.323-1.862,1.323
		c-1.392,0-1.862-0.675-1.862-1.323s0.47-1.318,1.862-1.318C78.925,56.175,79.396,56.845,79.396,57.493L79.396,57.493z
		 M79.356,55.919c-0.607-0.544-1.333-0.746-2.039-0.746c-1.843,0-2.862,1.063-2.862,2.271c0,1.471,1.274,2.374,2.882,2.374
		c0.863,0,1.509-0.25,2.098-0.86v0.708h1.078v-4.52c0-1.574-1.49-2.25-3.058-2.25c-0.608,0-1.392,0.093-2.392,0.507l0.49,0.942
		c0.627-0.294,1.215-0.447,1.823-0.447c0.902,0,1.98,0.245,1.98,1.335V55.919"/>
	<path fill="#005288" d="M86.609,59.666h1.137v-4.28c0-1.786-1.274-2.489-2.548-2.489c-0.745,0-1.49,0.332-1.823,0.926h-0.02v-0.773
		h-1.156v6.617h1.156v-3.72c0-1.258,0.647-1.982,1.706-1.982c1.137,0,1.549,0.86,1.549,1.857V59.666"/>
	<path fill="#005288" d="M94.901,53.725c-0.47-0.408-1.313-0.828-2.313-0.828c-1.921,0-3.392,1.585-3.392,3.48
		c0,1.83,1.333,3.441,3.372,3.441c0.843,0,1.686-0.294,2.293-0.903l-0.686-0.834c-0.392,0.365-0.921,0.67-1.47,0.67
		c-1.313,0-2.294-0.991-2.294-2.336c0-1.623,1.059-2.451,2.176-2.451c0.568,0,1.078,0.218,1.548,0.659L94.901,53.725"/>
	<path fill-rule="evenodd" clip-rule="evenodd" fill="#005288" d="M96.999,55.859c0.118-0.904,0.784-1.896,2.176-1.896
		c1.176,0,2.078,0.801,2.196,1.896H96.999L96.999,55.859z M101.488,57.689c-0.588,0.681-1.313,1.062-2.117,1.062
		c-1.274,0-2.196-0.822-2.372-1.955h5.665c0-2.336-1.431-3.899-3.47-3.899c-2.078,0-3.411,1.58-3.411,3.453
		c0,1.765,1.254,3.469,3.607,3.469c1.137,0,2.078-0.446,2.979-1.432L101.488,57.689"/>
	<polyline fill="#005288" points="112.623,57.303 108.683,50.016 107.467,50.016 107.467,59.666 108.683,59.666 108.683,52.521 
		108.722,52.521 112.623,59.77 116.504,52.521 116.543,52.521 116.543,59.666 117.759,59.666 117.759,50.016 116.543,50.016 
		112.623,57.303 	"/>
	<path fill-rule="evenodd" clip-rule="evenodd" fill="#005288" d="M124.071,57.493c0,0.648-0.471,1.323-1.862,1.323
		s-1.863-0.675-1.863-1.323s0.472-1.318,1.863-1.318S124.071,56.845,124.071,57.493L124.071,57.493z M124.032,55.919
		c-0.608-0.544-1.333-0.746-2.039-0.746c-1.843,0-2.862,1.063-2.862,2.271c0,1.471,1.274,2.374,2.882,2.374
		c0.862,0,1.529-0.25,2.098-0.86v0.708h1.077v-4.52c0-1.574-1.47-2.25-3.058-2.25c-0.606,0-1.392,0.093-2.391,0.507l0.489,0.942
		c0.628-0.294,1.216-0.447,1.823-0.447c0.902,0,1.98,0.245,1.98,1.335V55.919"/>
	<path fill="#005288" d="M131.285,59.666h1.137v-4.28c0-1.786-1.273-2.489-2.548-2.489c-0.745,0-1.471,0.332-1.824,0.926h-0.019
		v-0.773h-1.157v6.617h1.157v-3.72c0-1.258,0.646-1.982,1.705-1.982c1.137,0,1.549,0.86,1.549,1.857V59.666"/>
	<path fill-rule="evenodd" clip-rule="evenodd" fill="#005288" d="M138.656,57.493c0,0.648-0.472,1.323-1.863,1.323
		c-1.411,0-1.881-0.675-1.881-1.323s0.47-1.318,1.881-1.318C138.185,56.175,138.656,56.845,138.656,57.493L138.656,57.493z
		 M138.617,55.919c-0.608-0.544-1.354-0.746-2.039-0.746c-1.843,0-2.882,1.063-2.882,2.271c0,1.471,1.273,2.374,2.882,2.374
		c0.882,0,1.529-0.25,2.117-0.86v0.708h1.059v-4.52c0-1.574-1.471-2.25-3.059-2.25c-0.588,0-1.392,0.093-2.392,0.507l0.511,0.942
		c0.606-0.294,1.194-0.447,1.822-0.447c0.882,0,1.98,0.245,1.98,1.335V55.919"/>
	<path fill-rule="evenodd" clip-rule="evenodd" fill="#005288" d="M147.085,56.366c0,1.323-1.078,2.374-2.372,2.374
		c-1.196,0-2.391-0.915-2.391-2.435c0-1.105,0.882-2.342,2.43-2.342C145.987,53.964,147.085,55.031,147.085,56.366L147.085,56.366z
		 M147.085,54.095h-0.019c-0.55-0.789-1.55-1.198-2.529-1.198c-1.863,0-3.431,1.487-3.431,3.409c0,1.53,1.176,3.437,3.392,3.437
		c1.293,0,1.939-0.37,2.568-1.116h0.019v0.469c0,1.476-0.784,2.363-2.568,2.363c-0.686,0-1.489-0.267-2.194-1.144l-0.922,0.725
		c0.901,0.985,1.921,1.421,3.098,1.421c2.568,0,3.724-1.269,3.724-3.709v-5.702h-1.137V54.095"/>
	<path fill-rule="evenodd" clip-rule="evenodd" fill="#005288" d="M150.927,55.859c0.118-0.904,0.785-1.896,2.176-1.896
		c1.196,0,2.078,0.801,2.196,1.896H150.927L150.927,55.859z M155.417,57.689c-0.569,0.681-1.294,1.062-2.118,1.062
		c-1.273,0-2.195-0.822-2.372-1.955h5.666c0-2.336-1.431-3.899-3.47-3.899c-2.078,0-3.411,1.58-3.411,3.453
		c0,1.765,1.255,3.469,3.607,3.469c1.156,0,2.098-0.446,2.979-1.432L155.417,57.689"/>
	<path fill="#005288" d="M166.571,59.666h1.137v-4.177c0-1.737-1.118-2.593-2.529-2.593c-0.882,0-1.764,0.311-2.155,1.144
		c-0.55-0.964-1.295-1.144-1.962-1.144c-0.704,0-1.528,0.268-1.822,0.942H159.2v-0.79h-1.138v6.617h1.138v-3.997
		c0-1.105,0.725-1.705,1.666-1.705c0.784,0,1.451,0.513,1.451,1.65v4.052h1.137v-3.997c0-1.105,0.725-1.705,1.666-1.705
		c0.784,0,1.451,0.513,1.451,1.65V59.666"/>
	<path fill-rule="evenodd" clip-rule="evenodd" fill="#005288" d="M170.433,55.859c0.117-0.904,0.784-1.896,2.177-1.896
		c1.176,0,2.076,0.801,2.175,1.896H170.433L170.433,55.859z M174.922,57.689c-0.588,0.681-1.313,1.062-2.117,1.062
		c-1.294,0-2.195-0.822-2.372-1.955h5.665c0-2.336-1.431-3.899-3.47-3.899c-2.078,0-3.43,1.58-3.43,3.453
		c0,1.765,1.273,3.469,3.606,3.469c1.156,0,2.098-0.446,2.999-1.432L174.922,57.689"/>
	<path fill="#005288" d="M181.9,59.666h1.137v-4.28c0-1.786-1.254-2.489-2.548-2.489c-0.726,0-1.471,0.332-1.804,0.926h-0.039
		v-0.773h-1.138v6.617h1.138v-3.72c0-1.258,0.646-1.982,1.725-1.982c1.118,0,1.529,0.86,1.529,1.857V59.666"/>
	<path fill="#005288" d="M185.076,53.049h-0.921v1.003h0.921v4.193c0,1.018,0.353,1.421,1.529,1.421c0.255,0,0.529,0,0.686-0.011
		v-1.057h-0.509c-0.451,0-0.569-0.125-0.569-0.484v-4.063h1.06v-1.003h-1.06v-1.596h-1.137V53.049"/>
</g>
</svg>
