<?xml version="1.0" encoding="utf-8"?>
<!-- Generator: Adobe Illustrator 15.1.0, SVG Export Plug-In . SVG Version: 6.00 Build 0)  -->
<!DOCTYPE svg PUBLIC "-//W3C//DTD SVG 1.1//EN" "http://www.w3.org/Graphics/SVG/1.1/DTD/svg11.dtd">
<svg version="1.1" id="Ebene_1" xmlns="http://www.w3.org/2000/svg" xmlns:xlink="http://www.w3.org/1999/xlink" x="0px" y="0px"
	 width="176px" height="38px" viewBox="0 0 176 38" enable-background="new 0 0 176 38" xml:space="preserve">
<g>
	<g>
		<g>
			<g>
				<g>
					<path fill-rule="evenodd" clip-rule="evenodd" fill="#004587" d="M9.751,22.58c-0.104-0.302-0.206-0.605-0.302-0.906
						c-1.658,3.704-2.034,7.371-1.262,9.629c2.239,1.77,5.018,2.885,8.05,3.056C13.798,31.625,11.441,27.479,9.751,22.58z
						 M7.517,9.227c-2.981,2.625-4.846,6.558-4.846,10.843c0,1.138,0.199,2.233,0.45,3.294c0.359-2.442,1.84-5.889,4.673-9.008
						C7.564,12.531,7.42,10.747,7.517,9.227z"/>
				</g>
			</g>
			<g>
				<g>
					<path fill-rule="evenodd" clip-rule="evenodd" fill="#ACABAB" d="M20.444,7.337c-0.409-0.514-0.964-1.176-1.386-1.622
						c-0.521-0.079-1.053-0.126-1.592-0.146c0.501,0.572,1.141,1.386,1.632,2.076C19.538,7.532,19.985,7.429,20.444,7.337z
						 M10.7,7.036c-0.208,0.103-0.414,0.21-0.616,0.322c0.124,1.208,0.38,2.759,0.691,4.268c0.244-0.186,0.494-0.368,0.75-0.547
						C11.184,9.646,10.884,8.174,10.7,7.036z M18.135,7.914c-0.516-0.797-1.166-1.697-1.685-2.343
						c-0.293,0.01-0.585,0.026-0.874,0.054c0.514,0.707,1.163,1.682,1.685,2.569C17.548,8.096,17.84,8.003,18.135,7.914z
						 M30.209,15.593c-1.208-3.523-2.597-5.301-3.593-6.195c1.294,1.83,2.39,3.937,3.193,6.264c0.803,2.327,1.297,4.901,1.405,7.139
						C31.358,21.988,31.688,19.905,30.209,15.593z M19.955,11.063c-0.317,0.141-0.628,0.289-0.933,0.443
						c1,2.068,1.964,4.398,2.827,6.901c1.804,5.231,2.788,10.189,2.917,13.757c0.245-0.156,0.487-0.32,0.72-0.491
						c0.047-3.621-0.798-8.521-2.562-13.636C22.047,15.491,21.033,13.137,19.955,11.063z M15.221,8.997
						c-0.485-1.076-0.998-2.193-1.436-3.039c-0.534,0.123-1.056,0.274-1.565,0.455c0.325,0.981,0.745,2.254,1.165,3.503
						C13.97,9.59,14.583,9.283,15.221,8.997z M22.402,10.161c-0.486,0.146-0.961,0.305-1.422,0.479
						c1.153,2.065,2.215,4.428,3.101,6.998c1.707,4.947,2.435,9.763,2.231,13.416c0.409-0.347,0.798-0.717,1.166-1.106
						c0.336-3.637-0.247-8.214-1.844-12.845C24.749,14.537,23.64,12.195,22.402,10.161z M25.887,9.426
						c-0.237,0.031-0.472,0.065-0.705,0.102c1.318,1.919,2.449,4.143,3.294,6.594c1.215,3.524,1.649,7.346,1.446,10.498
						c0.247-0.507,0.492-1.042,0.677-1.581c0.062-2.804-0.401-6.128-1.444-9.151C28.326,13.484,27.205,11.308,25.887,9.426z
						 M11.586,17.945c-0.254,0.356-0.496,0.718-0.724,1.082c0.273,0.938,0.575,1.893,0.908,2.857
						c1.786,5.179,4.063,9.606,6.243,12.463c0.252-0.016,0.502-0.039,0.752-0.069c-2.015-2.918-4.216-7.451-6.035-12.726
						C12.307,20.327,11.926,19.121,11.586,17.945z M8.996,8.056c0.017,1.344,0.165,3.028,0.428,4.683
						c0.246-0.22,0.5-0.436,0.761-0.648c-0.29-1.575-0.479-3.176-0.556-4.443C9.415,7.778,9.204,7.915,8.996,8.056z M16.834,12.794
						c-0.696,0.472-1.35,0.978-1.961,1.513c0.622,1.824,1.292,3.78,1.996,5.819c1.877,5.44,3.581,10.296,4.738,13.516
						c0.518-0.174,1.023-0.374,1.513-0.604c-0.638-3.399-2.001-8.335-3.865-13.735C18.455,16.982,17.634,14.789,16.834,12.794z
						 M12.93,16.248c-0.265,0.301-0.518,0.607-0.762,0.917c0.391,1.335,0.829,2.718,1.315,4.127
						c1.839,5.332,3.967,9.941,5.839,12.911c0.229-0.037,0.457-0.079,0.682-0.125c-1.678-3.038-3.697-7.734-5.554-13.119
						C13.89,19.339,13.382,17.76,12.93,16.248z M24.3,9.687c-0.326,0.066-0.646,0.139-0.963,0.218
						c1.279,2.002,2.406,4.315,3.283,6.857c1.5,4.351,2.037,8.779,1.68,12.343c0.307-0.388,0.594-0.792,0.862-1.211
						c0.311-3.407-0.186-7.496-1.558-11.472C26.741,13.92,25.606,11.649,24.3,9.687z M22.262,7.031
						c-0.145-0.163-0.592-0.626-0.74-0.782c-0.465-0.164-0.859-0.242-1.345-0.358c0.317,0.331,0.851,0.916,1.159,1.281
						C21.642,7.121,21.949,7.073,22.262,7.031z"/>
				</g>
			</g>
		</g>
		<g>
			<path fill="#ACABAB" d="M101.744,13.057c-3.208,0-4.956,1.458-4.956,4.664v9.33h3.206v-5.102h4.956v-2.771h-4.956v-1.458
				c0-1.183,0.584-1.893,1.75-1.893h3.497v-2.771H101.744 M106.276,13.057v2.771h3.79v11.223h3.206V15.828h3.79v-2.771H106.276
				 M134.483,13.057c-0.438,3.354-1.531,8.527-2.479,11.151c-1.02-2.624-2.186-7.797-2.624-11.151h-2.916
				c-0.438,3.354-1.601,8.746-2.623,11.151c-0.948-2.405-2.041-7.797-2.479-11.151h-3.498v0.147
				c0.657,4.444,2.114,10.332,3.646,13.847h4.373c0.656-1.603,1.604-4.447,2.041-6.851c0.438,2.403,1.312,5.102,2.04,6.851h4.372
				c1.314-3.207,2.843-8.6,3.646-13.847v-0.147H134.483 M143.728,15.606c0.4,0.875,1.039,3.155,1.675,5.595h-3.407
				C142.671,18.761,143.38,16.481,143.728,15.606 M141.83,13.057c-0.582,1.093-2.04,5.029-2.915,8.019
				c-0.583,1.967-1.001,3.351-1.602,5.832v0.144h3.207c0.183-0.854,0.437-1.933,0.728-3.061h4.848
				c0.255,1.128,0.511,2.207,0.694,3.061h3.497v-0.144c-0.582-2.481-1.021-3.865-1.604-5.832c-0.875-2.989-2.333-6.926-2.915-8.019
				H141.83 M155.017,15.828h1.311c1.75,0,2.48,0.292,2.48,2.041c0,1.749-0.73,2.332-2.48,2.332h-1.311V15.828 M151.811,13.057
				v13.994h3.206v-4.152h1.968c1.165,0.728,2.332,3.352,2.549,4.152h3.5v-0.144c-0.127-0.894-1.677-3.938-3.134-5.104
				c1.166-0.728,2.259-1.841,2.259-4.082c0-3.643-2.041-4.664-5.248-4.664H151.811 M164.363,13.057V23.26
				c0,2.333,1.166,3.791,3.498,3.791h5.83v-2.769h-4.665c-1.165,0-1.456-0.438-1.456-1.604v-1.311h5.247v-2.771h-5.247v-2.769h5.847
				v-2.771H164.363 M76.016,12.912c-2.842,0-5.174,1.166-5.174,4.008c0,2.406,1.311,3.534,2.916,3.937l2.186,0.582
				c0.839,0.219,1.604,0.586,1.604,1.459c0,1.165-0.875,1.527-2.04,1.527h-0.73c-1.24,0-2.968-0.344-3.772-0.582h-0.162v2.697
				c0.993,0.356,2.749,0.642,3.849,0.656h0.937c3.07-0.031,5.271-1.206,5.271-4.299c0-2.262-1.093-3.52-3.207-4.084l-2.185-0.583
				c-0.73-0.201-1.314-0.51-1.314-1.31c0-1.021,0.875-1.24,1.897-1.24h0.653c0.804,0,2.553,0.238,3.28,0.439h0.147v-2.698
				c-0.803-0.291-2.552-0.51-3.427-0.51H76.016 M85.537,20.274v-0.586c0-2.403,0.657-4.008,3.06-4.008
				c2.406,0,3.062,1.604,3.062,4.008v0.586c0,2.403-0.656,4.151-3.062,4.151C86.194,24.426,85.537,22.678,85.537,20.274
				 M82.184,19.688v0.586c0,4.263,2.078,6.878,6.305,6.923h0.218c4.228-0.045,6.306-2.66,6.306-6.923v-0.586
				c0-4.299-2.114-6.776-6.416-6.776C84.298,12.912,82.184,15.39,82.184,19.688"/>
			<path fill="#004587" d="M62.188,13.057l-4.228,5.321h-0.801v-5.321h-3.207v13.995h3.207v-5.904h0.657l4.591,5.904h3.79v-0.146
				l-5.685-7.288l5.339-6.415v-0.145H62.188 M39.831,19.325v1.458c0,4.154,2.697,6.414,6.852,6.414h0.729
				c1.75,0,3.499-0.511,4.228-0.802v-7.071h-4.957v2.77h2.041v2.188c-0.291,0.072-0.984,0.146-1.312,0.146h-0.729
				c-2.114,0-3.499-1.531-3.499-3.645v-1.458c0-2.331,1.603-3.644,3.936-3.644c1.238,0,2.988,0.218,4.373,0.729h0.146v-2.77
				c-1.386-0.51-2.916-0.729-4.355-0.729C43.257,12.911,39.831,14.878,39.831,19.325"/>
		</g>
	</g>
</g>
</svg>
