<svg id="Layer_1" data-name="Layer 1" xmlns="http://www.w3.org/2000/svg" viewBox="0 0 352.5 74.6"><defs><style>.cls-1{fill:#1C295C}</style></defs><path class="cls-1" d="M2.51 30.41l3.39-4.88a19.59 19.59 0 0 0 11 3.26c6 0 7.11-1.16 7.11-3.72s-2.56-3-7.27-3.68c-8.2-1.14-12.46-2.63-12.46-9.28 0-6.82 4.14-9.26 12.72-9.26 6.24 0 10 1.45 12.39 3l-3.64 5.25A17.76 17.76 0 0 0 17 8.76c-4.79 0-5.95 1-5.95 3.18 0 2.48 2.52 2.93 7.4 3.64 7.35 1.07 12.27 2.27 12.27 9.17 0 6.2-3.39 9.67-13.59 9.67C11 34.41 6 33 2.51 30.41zM34 18.63c0-11 6-15.78 16.15-15.78 5.58 0 9.13 1.49 12 4.42l-4.67 4.67A9.78 9.78 0 0 0 50.15 9c-6.53 0-9.3 3.3-9.3 9.67 0 6.16 2.31 9.67 9.34 9.67A10 10 0 0 0 58 25.28l4.46 4.38c-2.44 2.52-5.7 4.75-12.64 4.75C38.33 34.41 34 28.75 34 18.63zM77.25 3.14h6.86L96.46 34h-7l-2-5H73.57l-2 5H65zm8.06 20.2l-4.79-12.18-4.8 12.18zm15.21-19.99h6.78v24.74h15V34h-21.78zm25.9 0h23v6.11H133.2v5.95H149v5.91h-15.8v6.78h16.4V34h-23.18zm28.8 0h11c12.06 0 17.06 3.14 17.06 15.29C183.27 30.57 178.11 34 166 34h-10.78zm11.2 24.7c8.34 0 10-2.52 10-9.42s-1.4-9.21-10.16-9.21H162v18.63zM207.2 3.14h6.86L226.41 34h-7l-2-5h-13.89l-2 5h-6.61zm8.05 20.2l-4.79-12.19-4.79 12.19zm13.56-4.71c0-11.07 5.78-15.78 16.11-15.78 6.2 0 10 1.82 12.39 4.34l-4.63 4.67c-1.57-1.49-3.6-2.81-7.81-2.81-6.69 0-9.29 3.3-9.29 9.67 0 6.69 1.82 10 9.21 10 5.95 0 7.68-2 7.68-6.28v-.66h-8.55v-5.63h15.24v5c0 8.72-3.47 13.26-14.71 13.26-12.21 0-15.64-5.61-15.64-15.78zm35.53-15.28h6.73V34h-6.73zm13.72 0h6.78v24.74h15V34h-21.78zm68.81-.11a3.58 3.58 0 0 1 3.63 3.61 3.59 3.59 0 0 1-3.65 3.65 3.63 3.63 0 1 1 0-7.26zm0 .63a2.9 2.9 0 0 0-2.88 3 2.91 2.91 0 0 0 2.93 3 2.85 2.85 0 0 0 2.83-3 2.89 2.89 0 0 0-2.86-3zm-.64 5h-.7V5.05a7.25 7.25 0 0 1 1.32-.11 1.76 1.76 0 0 1 1.18.29 1 1 0 0 1 .39.82 1 1 0 0 1-.73.88V7a1.17 1.17 0 0 1 .61.93 2.63 2.63 0 0 0 .29.93h-.73a3 3 0 0 1-.32-1c-.09-.43-.34-.61-.86-.61h-.45zm0-2.13h.48c.5 0 1-.16 1-.59s-.25-.63-.91-.63a2.65 2.65 0 0 0-.54 0zm-31.71 17.15l-1.21.96v.68h4.45l2.07-1.64h-5.31zm14.61-7.37l11.21-8.88-.54-3.77L329.55 12l-1 .81h.66zM340.78 11l-11.65 9.12v3.75h-4.79l-2.09 1.64h5.58l13.54-10.47zm1.94 13.63l-11.61 9.24h5.45l6.74-5.2zm.93 6.62L340.1 34h4zM341.78 18l-12.07 9.59v4.36L342.35 22z"/><path class="cls-1" d="M304.34 3.35h23v6.11h-16.23v5.95h15.82v5.91h-15.82v6.78h16.4V34h-23.17z"/><path d="M5.26 47.82h6.56a14 14 0 0 1 2.92.3 7.24 7.24 0 0 1 2.47 1A5.13 5.13 0 0 1 18.92 51a6.86 6.86 0 0 1 0 5.89 5.36 5.36 0 0 1-1.76 1.87 7.24 7.24 0 0 1-2.36 1 11.38 11.38 0 0 1-2.44.28H7.88v9.93H5.26zm2.62 9.75h4.44a5.35 5.35 0 0 0 3.2-.89 3.71 3.71 0 0 0 0-5.53 5.34 5.34 0 0 0-3.2-.89H7.88zm15.46 1.21q0-1-.06-1.87t-.06-1.59h2.31v2.41h.06a4.21 4.21 0 0 1 .7-1 5.06 5.06 0 0 1 1.08-.89 5.75 5.75 0 0 1 1.41-.62 5.84 5.84 0 0 1 1.69-.23 4.1 4.1 0 0 1 .5 0 2.18 2.18 0 0 1 .5.13l-.16 2.47A4.54 4.54 0 0 0 30 57.4a3.7 3.7 0 0 0-3.26 1.45 6.85 6.85 0 0 0-1 4v7.12h-2.4zm9.59 3.84a8 8 0 0 1 .59-3.12 7.38 7.38 0 0 1 1.62-2.42 7.22 7.22 0 0 1 2.47-1.58 9 9 0 0 1 6.25 0 7.22 7.22 0 0 1 2.47 1.58A7.39 7.39 0 0 1 48 59.5a8.51 8.51 0 0 1 0 6.25 7.38 7.38 0 0 1-1.62 2.42 7.22 7.22 0 0 1-2.47 1.58 9 9 0 0 1-6.25 0 7.22 7.22 0 0 1-2.47-1.58 7.38 7.38 0 0 1-1.62-2.42 7.94 7.94 0 0 1-.64-3.13zm2.62 0a6.2 6.2 0 0 0 .36 2.14 4.93 4.93 0 0 0 2.69 2.87 5.64 5.64 0 0 0 4.28 0 4.93 4.93 0 0 0 2.69-2.87 6.56 6.56 0 0 0 0-4.28 4.94 4.94 0 0 0-2.69-2.87 5.64 5.64 0 0 0-4.28 0 4.94 4.94 0 0 0-2.69 2.87 6.2 6.2 0 0 0-.36 2.14zM59 69.93h-2.71l-6-14.62h2.84l4.56 11.46h.06l4.34-11.46h2.62zm8-20.33a1.74 1.74 0 0 1 .52-1.25 1.77 1.77 0 0 1 2.53 0 1.79 1.79 0 1 1-3 1.25zm.56 5.72H70v14.61h-2.4zM87 67.34a5.57 5.57 0 0 1-2.17 2.11 6.77 6.77 0 0 1-3.45.86 7.2 7.2 0 0 1-2.87-.58 7 7 0 0 1-2.33-1.61 7.55 7.55 0 0 1-1.55-2.44 8.62 8.62 0 0 1 0-6.12 7.41 7.41 0 0 1 1.56-2.44 7 7 0 0 1 2.42-1.61 8.27 8.27 0 0 1 3.14-.58 6.51 6.51 0 0 1 2.92.66A7.19 7.19 0 0 1 87 57.44V46.32h2.44v23.61H87zm0-4.72a6.21 6.21 0 0 0-.36-2.14A4.94 4.94 0 0 0 84 57.61a5.64 5.64 0 0 0-4.28 0A4.94 4.94 0 0 0 77 60.48a6.56 6.56 0 0 0 0 4.28 4.93 4.93 0 0 0 2.69 2.87 5.64 5.64 0 0 0 4.28 0 4.93 4.93 0 0 0 2.69-2.87 6.21 6.21 0 0 0 .34-2.14zm20 4.66a7.41 7.41 0 0 1-2.87 2.36 9.11 9.11 0 0 1-3.62.67 7.55 7.55 0 0 1-3.09-.61 7 7 0 0 1-2.33-1.64 7.19 7.19 0 0 1-1.47-2.44 8.63 8.63 0 0 1-.52-3 8.38 8.38 0 0 1 .56-3.11 7.2 7.2 0 0 1 1.56-2.44 7 7 0 0 1 2.37-1.58 7.86 7.86 0 0 1 3-.56 7.48 7.48 0 0 1 2.81.51 6.1 6.1 0 0 1 2.2 1.5 6.73 6.73 0 0 1 1.42 2.4 9.72 9.72 0 0 1 .5 3.23v.78H95.74a5.12 5.12 0 0 0 .45 1.8 5.21 5.21 0 0 0 1 1.5 4.69 4.69 0 0 0 1.47 1 4.48 4.48 0 0 0 1.84.38 5.82 5.82 0 0 0 2.69-.56 6.1 6.1 0 0 0 2-1.66zm-2.09-6a4.2 4.2 0 0 0-1.22-3 4.37 4.37 0 0 0-3.19-1.12 4.5 4.5 0 0 0-4.78 4.12zm6.42-2.5q0-1-.06-1.87t-.06-1.59h2.31v2.41h.06a4.21 4.21 0 0 1 .7-1 5.06 5.06 0 0 1 1.08-.89 5.75 5.75 0 0 1 1.41-.62 5.84 5.84 0 0 1 1.69-.23 4.1 4.1 0 0 1 .5 0 2.18 2.18 0 0 1 .5.13l-.16 2.47a4.54 4.54 0 0 0-1.31-.19 3.7 3.7 0 0 0-3.26 1.45 6.85 6.85 0 0 0-1 4v7.12h-2.44zm18.83 3.84a8 8 0 0 1 .59-3.12 7.38 7.38 0 0 1 1.62-2.42 7.22 7.22 0 0 1 2.47-1.58 9 9 0 0 1 6.25 0 7.22 7.22 0 0 1 2.47 1.58 7.39 7.39 0 0 1 1.62 2.42 8.51 8.51 0 0 1 0 6.25 7.38 7.38 0 0 1-1.62 2.42 7.22 7.22 0 0 1-2.47 1.58 9 9 0 0 1-6.25 0 7.22 7.22 0 0 1-2.47-1.58 7.38 7.38 0 0 1-1.62-2.42 7.94 7.94 0 0 1-.59-3.13zm2.62 0a6.2 6.2 0 0 0 .36 2.14 4.93 4.93 0 0 0 2.69 2.87 5.64 5.64 0 0 0 4.28 0 4.93 4.93 0 0 0 2.69-2.87 6.56 6.56 0 0 0 0-4.28 4.94 4.94 0 0 0-2.69-2.87 5.64 5.64 0 0 0-4.28 0 4.94 4.94 0 0 0-2.69 2.87 6.2 6.2 0 0 0-.36 2.14zm18.03-5.25h-3.19v-2.06h3.19V52a11.15 11.15 0 0 1 .25-2.45 5 5 0 0 1 .86-1.92 4.06 4.06 0 0 1 1.61-1.26 6 6 0 0 1 2.47-.45 5.77 5.77 0 0 1 1 .09 2.88 2.88 0 0 1 .87.28l-.34 2.19a4.94 4.94 0 0 0-1.66-.31 2.79 2.79 0 0 0-1.47.33 2 2 0 0 0-.8.91 3.86 3.86 0 0 0-.31 1.39v4.5h3.56v2.06h-3.56v12.57h-2.44zM179 51.72a3.87 3.87 0 0 0-1.75-1.55 5.58 5.58 0 0 0-2.28-.48 6.83 6.83 0 0 0-1.72.22 5.13 5.13 0 0 0-1.51.66 3.28 3.28 0 0 0-1.08 1.16 3.37 3.37 0 0 0-.41 1.69 3.51 3.51 0 0 0 .23 1.33 2.79 2.79 0 0 0 .77 1 5.68 5.68 0 0 0 1.44.88 19.85 19.85 0 0 0 2.22.81q1.28.41 2.48.88a8.39 8.39 0 0 1 2.12 1.19 5.28 5.28 0 0 1 1.47 1.8 6.78 6.78 0 0 1-.11 5.58 6 6 0 0 1-1.73 2 7.52 7.52 0 0 1-2.48 1.19 10.82 10.82 0 0 1-2.9.39 11.09 11.09 0 0 1-1.94-.17 9.34 9.34 0 0 1-1.86-.53 7.55 7.55 0 0 1-1.67-.94 5.65 5.65 0 0 1-1.29-1.4l2.25-1.84a4.61 4.61 0 0 0 2 1.84 6.1 6.1 0 0 0 4.42.38 5.15 5.15 0 0 0 1.55-.73 4 4 0 0 0 1.12-1.2 3.12 3.12 0 0 0 .44-1.66 3.53 3.53 0 0 0-.34-1.67 3.08 3.08 0 0 0-1.06-1.11 8.2 8.2 0 0 0-1.81-.84l-2.57-.88a16.24 16.24 0 0 1-2.19-.86 6.71 6.71 0 0 1-1.81-1.19 5.06 5.06 0 0 1-1.12-1.67 6 6 0 0 1-.42-2.36 5.69 5.69 0 0 1 2.31-4.76 7.67 7.67 0 0 1 2.4-1.2 10.21 10.21 0 0 1 6.23.17 6.71 6.71 0 0 1 2.76 2zm14.07-3.9h2.47l9.4 22.11h-3.06l-2.25-5.43h-11.06l-2.28 5.43h-3zm1.19 3.37h-.06l-4.6 10.87h9zm13.61-3.37h13.71v2.44H210.5v7.31h10.3V60h-10.3v9.93h-2.62zm29.99 19.46a7.41 7.41 0 0 1-2.86 2.35 9.11 9.11 0 0 1-3.62.67 7.55 7.55 0 0 1-3.09-.61 7 7 0 0 1-2.33-1.64 7.19 7.19 0 0 1-1.47-2.44 8.63 8.63 0 0 1-.52-3 8.38 8.38 0 0 1 .56-3.11 7.2 7.2 0 0 1 1.56-2.44 7 7 0 0 1 2.37-1.58 7.86 7.86 0 0 1 3-.56 7.48 7.48 0 0 1 2.81.51 6.1 6.1 0 0 1 2.2 1.5 6.73 6.73 0 0 1 1.42 2.4 9.72 9.72 0 0 1 .5 3.23v.78h-11.81a5.12 5.12 0 0 0 .45 1.8 5.21 5.21 0 0 0 1 1.5 4.69 4.69 0 0 0 1.47 1 4.48 4.48 0 0 0 1.84.38 5.82 5.82 0 0 0 2.69-.56 6.1 6.1 0 0 0 2-1.66zm-2.09-6a4.2 4.2 0 0 0-1.22-3 4.37 4.37 0 0 0-3.19-1.12 4.5 4.5 0 0 0-4.78 4.12zm2.79-6.98a3.45 3.45 0 0 1 .27-1.38 3.38 3.38 0 0 1 .75-1.1 3.54 3.54 0 0 1 1.11-.73 3.49 3.49 0 0 1 2.68 0 3.54 3.54 0 0 1 1.11.73 3.38 3.38 0 0 1 .75 1.1 3.59 3.59 0 0 1 0 2.76 3.41 3.41 0 0 1-.75 1.1 3.57 3.57 0 0 1-1.11.73 3.51 3.51 0 0 1-2.68 0 3.57 3.57 0 0 1-1.11-.73 3.41 3.41 0 0 1-1-2.48zm.62 0a3 3 0 0 0 .22 1.17 3 3 0 0 0 .61.94 2.8 2.8 0 0 0 .9.63 2.76 2.76 0 0 0 1.12.23 2.73 2.73 0 0 0 1.11-.23 2.86 2.86 0 0 0 .9-.62 2.92 2.92 0 0 0 .61-.94 3.19 3.19 0 0 0 0-2.35 2.92 2.92 0 0 0-.61-.94 2.88 2.88 0 0 0-.9-.62 2.73 2.73 0 0 0-1.11-.23 2.76 2.76 0 0 0-1.12.23 2.81 2.81 0 0 0-.9.63 3 3 0 0 0-.61.94 3.06 3.06 0 0 0-.23 1.16zm1.53-2h1.53q1.42 0 1.42 1.16a1 1 0 0 1-.31.81 1.38 1.38 0 0 1-.76.3l1.17 1.79h-.66l-1.1-1.78h-.66v1.74h-.62zm.62 1.81h1a1 1 0 0 0 .35-.08.56.56 0 0 0 .24-.21.69.69 0 0 0 .09-.38.59.59 0 0 0-.08-.33.55.55 0 0 0-.21-.19.88.88 0 0 0-.29-.08h-1.13z" fill="#d3d4d5"/></svg>